<?xml version="1.0" standalone="no"?>
<!DOCTYPE svg PUBLIC "-//W3C//DTD SVG 20010904//EN"
 "http://www.w3.org/TR/2001/REC-SVG-20010904/DTD/svg10.dtd">
<svg version="1.0" xmlns="http://www.w3.org/2000/svg"
 width="656.000000pt" height="458.000000pt" viewBox="0 0 656.000000 458.000000"
 preserveAspectRatio="xMidYMid meet">
<metadata>
Created by potrace 1.13, written by Peter Selinger 2001-2015
</metadata>
<g transform="translate(0.000000,458.000000) scale(0.100000,-0.100000)"
fill="#15868B" stroke="none">
<path d="M2861 3940 c-82 -17 -145 -43 -231 -93 -47 -28 -87 -53 -90 -56 -3
-3 -23 -20 -45 -36 -61 -46 -229 -211 -311 -305 -132 -153 -258 -312 -321
-405 -15 -22 -44 -61 -65 -86 -21 -26 -38 -50 -38 -55 0 -4 -20 -34 -45 -65
-25 -32 -45 -61 -45 -65 0 -4 -18 -31 -40 -60 -22 -29 -40 -56 -40 -60 0 -3
-18 -32 -40 -63 -41 -57 -117 -170 -135 -199 -15 -26 -88 -141 -131 -207 -21
-33 -44 -71 -50 -85 -7 -14 -28 -47 -48 -75 -20 -27 -36 -54 -36 -58 0 -4 -18
-35 -40 -67 -22 -33 -44 -68 -47 -77 -4 -10 -24 -42 -45 -72 -21 -30 -38 -58
-38 -63 0 -5 -18 -36 -40 -68 -22 -33 -43 -68 -47 -77 -4 -10 -26 -48 -50 -85
-24 -36 -43 -70 -43 -75 0 -4 -18 -35 -40 -68 -22 -33 -40 -63 -40 -67 0 -4
-20 -39 -45 -78 -25 -39 -45 -73 -45 -76 0 -4 -20 -39 -45 -78 -25 -40 -45
-76 -45 -79 0 -3 -18 -34 -40 -68 -22 -34 -40 -66 -40 -70 0 -5 -20 -40 -45
-79 -25 -39 -45 -74 -45 -79 0 -4 -18 -36 -41 -71 -22 -35 -45 -73 -49 -85 -5
-12 -25 -47 -44 -78 -20 -31 -36 -60 -36 -65 0 -5 -18 -37 -41 -72 -22 -35
-45 -74 -50 -87 -5 -13 -25 -49 -45 -80 -19 -31 -40 -66 -45 -79 l-9 -24 3276
0 c2965 0 3275 1 3264 16 -8 8 -33 27 -57 41 -24 13 -43 28 -43 32 0 4 -13 14
-29 24 -16 9 -47 32 -69 50 -21 17 -52 42 -68 55 -366 287 -777 683 -1136
1092 -99 113 -157 184 -303 370 -20 25 -58 73 -85 106 -28 34 -50 65 -50 69 0
3 -18 28 -40 54 -22 26 -40 51 -40 55 0 4 -18 31 -40 59 -78 101 -140 186
-140 194 0 4 -20 34 -45 65 -25 32 -45 61 -45 64 0 4 -18 31 -40 60 -22 29
-40 57 -40 62 0 5 -18 33 -41 63 -22 30 -45 63 -49 74 -4 11 -27 44 -49 74
-23 30 -41 58 -41 63 0 5 -18 33 -40 62 -22 29 -40 56 -40 61 0 4 -20 36 -45
71 -25 34 -45 66 -45 69 0 4 -18 33 -40 64 -23 31 -73 104 -113 164 -169 252
-313 433 -415 520 -20 18 -48 42 -62 55 -14 12 -28 22 -32 22 -3 0 -13 6 -20
13 -23 23 -109 66 -159 81 -65 20 -174 27 -228 16z"/>
</g>
</svg>
